<svg xmlns="http://www.w3.org/2000/svg" xmlns:svg="http://www.w3.org/2000/svg" id="svg2" width="180" height="87.743" version="1.1"><metadata id="metadata7"/><g id="layer1" transform="translate(2.0970507e-7,-964.61914)"><path style="fill:#ff0;fill-opacity:1;fill-rule:evenodd;stroke:#c8c600;stroke-width:19.47523308;stroke-linecap:butt;stroke-linejoin:miter;stroke-miterlimit:4;stroke-opacity:1;stroke-dasharray:none" id="path2991" d="m 245.90169,529.18677 -111.80339,-10e-6 -55.901698,-96.82458 55.901708,-96.82458 111.80339,0 55.9017,96.82459 z" transform="matrix(0.41138376,0,0,0.41138376,-28.162915,830.65744)"/><path style="fill:#fff;fill-opacity:1;fill-rule:evenodd;stroke:#fff;stroke-width:19.54971083;stroke-miterlimit:4;stroke-opacity:1;stroke-dasharray:none;opacity:.80000000000000004" id="path2991-2-3" d="m 245.90169,529.18677 -111.80339,-10e-6 -55.901698,-96.82458 55.901708,-96.82458 111.80339,0 55.9017,96.82459 z" transform="matrix(0.41125928,0,0,0.41125928,6.8607372,830.7094)"/><path style="fill:#ffc600;fill-opacity:1;fill-rule:evenodd;stroke:#c89b00;stroke-width:20.67968369;stroke-linecap:butt;stroke-linejoin:miter;stroke-miterlimit:4;stroke-opacity:1;stroke-dasharray:none" id="path2991-2-8" d="m 245.90169,529.18677 -111.80339,-10e-6 -55.901698,-96.82458 55.901708,-96.82458 111.80339,0 55.9017,96.82459 z" transform="matrix(0.40935544,0,0,0.40935544,12.222466,831.50402)"/><path style="fill:#fff;fill-opacity:1;fill-rule:evenodd;stroke:#fff;stroke-width:20.8065643300000005;stroke-miterlimit:4;stroke-opacity:1;stroke-dasharray:none;opacity:.8" id="path2991-2-3-3" d="m 245.90169,529.18677 -111.80339,-10e-6 -55.901698,-96.82458 55.901708,-96.82458 111.80339,0 55.9017,96.82459 z" transform="matrix(0.40914294,0,0,0.40914294,47.262842,831.59273)"/><path style="fill:#ff9000;fill-opacity:1;fill-rule:evenodd;stroke:#c87100;stroke-width:20.67968369;stroke-linecap:butt;stroke-linejoin:miter;stroke-miterlimit:4;stroke-opacity:1;stroke-dasharray:none" id="path2991-2" d="m 245.90169,529.18677 -111.80339,-10e-6 -55.901698,-96.82458 55.901708,-96.82458 111.80339,0 55.9017,96.82459 z" transform="matrix(0.40935544,0,0,0.40935544,52.222466,831.50402)"/></g></svg>